<svg xmlns="http://www.w3.org/2000/svg" width="572" height="543" fill="none" viewBox="0 0 572 543"><path fill="#414343" fill-rule="evenodd" d="M454.201 332.134H420.468C409.791 332.134 400.087 336.526 393.056 343.593V287.772H381.36V453.545H393.374V377.771C393.374 359.258 408.454 344.106 426.894 344.106H446.927C465.367 344.106 480.447 359.258 480.447 377.771V453.545H492.984V371.089C492.984 349.66 475.535 332.134 454.201 332.134Z" clip-rule="evenodd"/><path fill-rule="evenodd" stroke="#414343" stroke-width=".5" d="M454.201 332.134H420.468C409.791 332.134 400.087 336.526 393.056 343.593V287.772H381.36V453.545H393.374V377.771C393.374 359.258 408.454 344.106 426.894 344.106H446.927C465.367 344.106 480.447 359.258 480.447 377.771V453.545H492.984V371.089C492.984 349.66 475.535 332.134 454.201 332.134Z" clip-rule="evenodd"/><mask id="mask0" width="161" height="141" x="0" y="278" mask-type="alpha" maskUnits="userSpaceOnUse"><path fill="#fff" d="M0.0721283 278.745H160.033V418.084H0.0721283V278.745Z"/></mask><g mask="url(#mask0)"><path fill="#F7931D" fill-rule="evenodd" d="M119.99 278.745L160.036 348.414L119.99 418.084H39.8966L-0.151039 348.414L39.8966 278.745H119.99Z" clip-rule="evenodd"/></g><path fill="#8CC63F" fill-rule="evenodd" d="M290.521 153.721L339.185 238.381L290.521 323.048H193.19L144.518 238.381L193.19 153.721H290.521Z" clip-rule="evenodd"/><path fill="#FDB912" fill-rule="evenodd" d="M288.689 373.032L337.353 457.692L288.689 542.359H191.36L142.688 457.692L191.36 373.032H288.689Z" clip-rule="evenodd"/><path fill="#25BDBE" fill-rule="evenodd" d="M507.858 0L572 111.592L507.858 223.183H379.563L315.422 111.592L379.563 0H507.858Z" clip-rule="evenodd"/></svg>