<svg xmlns="http://www.w3.org/2000/svg" xmlns:xlink="http://www.w3.org/1999/xlink" id="Layer_1" x="0" y="0" version="1.1" viewBox="0 0 62.4 63.3" xml:space="preserve" style="enable-background:new 0 0 62.4 63.3"><style type="text/css">.st0{fill:none}.st1{fill:#2684ff}.st2{fill:url(#SVGID_1_)}</style><title>Bitbucket-blue</title><g id="Layer_2_1_"><g id="Blue"><polygon points="24.7 43.5 37.8 43.5 40.9 25.1 21.2 25.1" class="st0"/><path d="M2,6.3c-1.1,0-2,0.9-2,2c0,0.1,0,0.2,0,0.3l8.5,51.5c0.2,1.3,1.3,2.3,2.7,2.3h40.7c1,0,1.8-0.7,2-1.7 l8.5-52.1c0.2-1.1-0.6-2.1-1.7-2.3c-0.1,0-0.2,0-0.3,0L2,6.3z M37.8,43.5h-13l-3.5-18.4h19.7L37.8,43.5z" class="st1"/><linearGradient id="SVGID_1_" x1="64.018" x2="32.998" y1="35.72" y2="11.51" gradientTransform="matrix(1 0 0 -1 0 66)" gradientUnits="userSpaceOnUse"><stop offset=".18" style="stop-color:#0052cc"/><stop offset="1" style="stop-color:#2684ff"/></linearGradient><path d="M59.7,25.1H40.9l-3.2,18.4h-13L9.4,61.7c0.5,0.4,1.1,0.7,1.8,0.7h40.7c1,0,1.8-0.7,2-1.7L59.7,25.1z" class="st2"/></g></g></svg>